# xmcd
#
# Track frame offsets:
#	180
#	10866
#	23441
#	35037
#	45101
#	58091
#	68913
#	80847
#	94462
#	105434
#	117402
#	127422
#	139086
#	150008
#
# Disc length: 2161 seconds
#
# Revision: 0
# Processed by: cddbd v1.5.1PL0 Copyright (c) Steve Scherf et al.
# Submitted via: dBpowerAMP V4.0
#
DISCID=b4086f0e
DTITLE=Various Artist - Spotlite On Apollo Records Vol. 6
DYEAR=1996
DGENRE=R&B
TTITLE0=Casanovas - You Are My Queen
TTITLE1=Dovers - Please Squeeze
TTITLE2=Ambassadors - Willa Bea
TTITLE3=Casanovas - For You And You Alone
TTITLE4=5 Royals - I Like It Like That
TTITLE5=Keynotes - Now I Know (slower version)
TTITLE6=Sparks Of Rhythm w Jimmy Jones - Woman
TTITLE7=Mel-O-Dots - Just How Long
TTITLE8=Charmers - Battle Axe
TTITLE9=Larks - I Don't Believe In Tomorrow
TTITLE10=Keynotes - Zenda
TTITLE11=Casanovas - Please Be My Love
TTITLE12=Vocaltones - My Version Of Love
TTITLE13=Gentlemen - Baby Don't Go
EXTD=
EXTT0=
EXTT1=
EXTT2=
EXTT3=
EXTT4=
EXTT5=
EXTT6=
EXTT7=
EXTT8=
EXTT9=
EXTT10=
EXTT11=
EXTT12=
EXTT13=
PLAYORDER=
